<?xml version="1.0" standalone="no"?>
<!DOCTYPE svg PUBLIC "-//W3C//DTD SVG 20010904//EN"
 "http://www.w3.org/TR/2001/REC-SVG-20010904/DTD/svg10.dtd">
<svg version="1.0" xmlns="http://www.w3.org/2000/svg"
 width="260.000000pt" height="260.000000pt" viewBox="0 0 260.000000 260.000000"
 preserveAspectRatio="xMidYMid meet">
<metadata>
Created by potrace 1.11, written by Peter Selinger 2001-2013
</metadata>
<g transform="translate(0.000000,260.000000) scale(0.100000,-0.100000)"
fill="#000000" stroke="none">
<path d="M620 2164 c-92 -19 -198 -75 -258 -134 -110 -108 -163 -254 -166
-455 -1 -111 1 -124 25 -170 47 -93 90 -114 388 -196 221 -61 243 -88 206
-254 -32 -144 -93 -182 -310 -192 -92 -4 -369 9 -439 20 -8 2 -44 -150 -45
-194 -1 -9 15 -23 37 -32 80 -36 166 -49 352 -54 504 -14 658 114 711 587 19
169 -8 252 -101 315 -43 29 -92 46 -362 129 -149 46 -172 64 -170 135 3 126
52 205 144 233 53 16 381 16 483 0 38 -6 71 -9 74 -6 4 4 40 187 41 210 0 14
-88 39 -210 59 -116 18 -313 18 -400 -1z"/>
<path d="M1356 2123 c-16 -77 -276 -1566 -276 -1579 0 -11 24 -14 140 -14 137
0 140 0 145 23 3 12 30 164 60 337 31 173 57 321 60 328 3 9 36 12 119 12
l114 0 76 -192 c41 -106 103 -264 137 -351 l61 -157 165 0 c153 0 165 1 160
17 -2 10 -73 191 -157 403 -84 212 -154 392 -157 401 -3 11 99 155 281 398
157 209 286 385 286 391 0 6 -58 10 -159 10 l-158 0 -242 -325 -243 -325 -118
0 c-107 0 -118 2 -114 18 12 55 104 592 104 610 0 22 -3 22 -139 22 l-139 0
-6 -27z"/>
</g>
</svg>
